<?xml version="1.0" encoding="UTF-8" standalone="no"?>
<svg
   xmlns="http://www.w3.org/2000/svg"
   version="1.1"
   viewBox="0 0 300.00001 300"
   height="300"
   width="300">
    <path
       id="path4135"
       d="m 260,160 c 0,80 0,100 -110,100 C 40,260 40,240 40,160 40,80 89.248678,60 150,60 c 60.75132,0 110,20 110,100 z"
       style="fill:#e6e6e6;" />
    <circle
       r="20"
       cy="140"
       cx="100"
       id="path4138"
       style="fill:#cccccc;" />
    <circle
       style="fill:#cccccc;"
       id="circle4140"
       cx="200"
       cy="140"
       r="20" />
    <path
       id="path4142"
       d="m 130,220 c -5.54,0 -10,4.46 -10,10 l 0,30 c 0,11.04569 13.43146,20 30,20 16.56854,0 30,-8.95431 30,-20 l 0,-30 c 0,-5.54 -4.46,-10 -10,-10 z"
       style="fill:#cccccc;" />
    <path
       id="path4150"
       d="m 180,190 c 0,10 -13.43146,15 -30,15 -16.56854,0 -30,-5 -30,-15 0,-5.52285 13.43146,-10 30,-10 16.56854,0 30,4.47715 30,10 z"
       style="fill:#cccccc;" />
    <path
       id="path4154"
       d="M 68.151539,105.86572 C 39.775108,152.99229 33.965883,165.48522 20.393644,157.9718 6.8214072,150.45837 2.9130418,132.58588 31.289474,85.459313 46.961344,59.432029 70.668379,44.423582 84.240623,51.937013 121.10269,72.343416 83.823404,79.838432 68.151539,105.86572 Z"
       style="fill:#cccccc;" />
    <path
       id="path4161"
       d="M 224.34375 50.009766 C 221.20612 49.91079 218.30456 50.528732 215.75977 51.9375 C 178.8977 72.343903 216.1758 79.837946 231.84766 105.86523 C 260.22409 152.9918 266.03323 165.48608 279.60547 157.97266 C 293.1777 150.45923 297.08737 132.58555 268.71094 85.458984 C 255.97754 64.311816 237.94013 50.43866 224.34375 50.009766 z "
       style="fill:#cccccc;" />
</svg>
