<?xml version="1.0" encoding="UTF-8" standalone="no"?>
<svg
   xmlns="http://www.w3.org/2000/svg"
   version="1.1"
   id="svg2"
   viewBox="0 0 800.00001 450.00001"
   height="450"
   width="800"><defs
   id="defs4">
  <marker
     style="overflow:visible;"
     id="marker5110"
     refX="0.0"
     refY="0.0"
     orient="auto">
    <path
       transform="scale(0.8) rotate(180) translate(12.5,0)"
       style="fill-rule:evenodd;stroke:#000000;fill:#000000"
       d="M 0.0,0.0 L 5.0,-5.0 L -12.5,0.0 L 5.0,5.0 L 0.0,0.0 z "
       id="path5112" />
  </marker>
</defs>
<g
   id="layer1" />

    <circle
   r="59.999989"
   cy="150.00006"
   cx="139.99998"
   id="path4138"
   style="fill:#e6e6e6" />
<circle
   style="fill:#ffe680"
   id="circle4140"
   cx="400"
   cy="150"
   r="59.999989" />
<circle
   r="59.999989"
   cy="150"
   cx="660"
   id="circle4142"
   style="fill:#ffe680" />
<text
   id="text4144"
   y="64.218811"
   x="16.09375"
   style="font-size:40px;fill:#000000;"><tspan
     id="tspan4148"
     y="64.218811"
     x="16.09375">インストール</tspan></text>
<text
   style="font-size:40px;fill:#000000"
   x="359.6875"
   y="64.296936"
   id="text4152"><tspan
     x="359.6875"
     y="64.296936"
     id="tspan4154">待機</tspan></text>
<text
   id="text4156"
   y="65.390686"
   x="558.59375"
   style="font-size:40px;fill:#000000"><tspan
     id="tspan4158"
     y="65.390686"
     x="558.59375">アクティブ</tspan></text>
<path
   id="rect4160"
   d="m 580,290.00004 0,120 160,0 0,-120 -160,0 z m 10,30 140,0 0,80 -140,0 0,-80 z"
   style="fill:#e6e6e6" />
    <path
   id="rect4167"
   d="m 270,290.00004 c -5.53999,0 -10,4.46001 -10,10 l 0,100 c 0,5.53999 4.46001,10 10,10 l 60,0 c 5.53999,0 10,-4.46001 10,-10 l 0,-100 c 0,-5.53999 -4.46001,-10 -10,-10 l -60,0 z m 0,10 60,0 0,90 -60,0 0,-90 z"
   style="fill:#ececec" />
<path
   id="path5108"
   d="m 470,150.00004 120,0"
   style="fill:none;fill-rule:evenodd;stroke:#000000;stroke-width:1px;marker-end:url(#marker5110)" />
<path
   style="fill:#e6e6e6"
   d="m 380,290 0,120 160,0 0,-120 -160,0 z m 10,30 140,0 0,80 -140,0 0,-80 z"
   id="path4376" />
<text
   xml:space="preserve"
   style="font-size:40px;fill:#000000;"
   x="374.52148"
   y="164.54102"
   id="text4412"><tspan
     x="374.52148"
     y="164.54102"
     id="tspan4414">v2</tspan></text>
<text
   id="text4416"
   y="164.54102"
   x="634.52148"
   style="font-size:40px;fill:#000000"
   xml:space="preserve"><tspan
     id="tspan4418"
     y="164.54102"
     x="634.52148">v2</tspan></text>
</svg>
