<?xml version="1.0" encoding="UTF-8" standalone="no"?>
<svg
   xmlns="http://www.w3.org/2000/svg"
   width="800"
   height="450"
   viewBox="0 0 800.00001 450.00001"
   id="svg2"
   version="1.1">
  <defs
     id="defs4">
    <marker
       orient="auto"
       refY="0.0"
       refX="0.0"
       id="Arrow1Lend"
       style="overflow:visible;">
      <path
         id="path4519"
         d="M 0.0,0.0 L 5.0,-5.0 L -12.5,0.0 L 5.0,5.0 L 0.0,0.0 z "
         style="fill-rule:evenodd;stroke:#000000;stroke-width:1.0pt;"
         transform="scale(0.8) rotate(180) translate(12.5,0)" />
    </marker>
  </defs>
  <g
     id="layer1" />
  <circle
     style="fill:#ffd5d5"
     id="path4138"
     cx="139.99998"
     cy="150.00006"
     r="59.999989" />
  <circle
     r="59.999989"
     cy="150"
     cx="400"
     id="circle4140"
     style="fill:#ffd5d5" />
  <circle
     style="fill:#ffd5d5"
     id="circle4142"
     cx="660"
     cy="150"
     r="59.999989" />
  <text
     xml:space="preserve"
     style="font-size:40px"
     x="16.09375"
     y="64.218811"
     id="text4144"><tspan
       x="16.09375"
       y="64.218811"
       id="tspan4148">インストール</tspan></text>
  <text
     id="text4152"
     y="64.296936"
     x="359.6875"
     style="font-size:40px">
    <tspan
       id="tspan4154"
       y="64.296936"
       x="359.6875">待機</tspan>
  </text>
  <text
     xml:space="preserve"
     style="font-size:40px"
     x="558.59375"
     y="65.390686"
     id="text4156"><tspan
       x="558.59375"
       y="65.390686"
       id="tspan4158">アクティブ</tspan></text>
  <path
     style="fill:#ffd5d5"
     d="m 580,290.00004 0,120 160,0 0,-120 -160,0 z m 10,30 140,0 0,80 -140,0 0,-80 z"
     id="rect4160" />
  <path
     id="path4796"
     d="m 210,150.00004 120,0"
     style="fill:none;fill-rule:evenodd;stroke:#000000;stroke-width:1px;marker-end:url(#Arrow1Lend)" />
  <text
     style="font-size:40px"
     x="114.52148"
     y="164.54102"
     id="text4408">
    <tspan
       x="114.52148"
       y="164.54102"
       id="tspan4410">v1</tspan>
  </text>
  <text
     id="text4412"
     y="164.54102"
     x="374.52148"
     style="font-size:40px"
     xml:space="preserve"><tspan
       id="tspan4414"
       y="164.54102"
       x="374.52148">v1</tspan></text>
  <path
     style="fill:none;fill-rule:evenodd;stroke:#000000;stroke-width:1px;marker-end:url(#Arrow1Lend)"
     d="m 470,150 120,0"
     id="path4160" />
  <text
     xml:space="preserve"
     style="font-size:40px"
     x="634.52148"
     y="164.541"
     id="text4170"><tspan
       x="634.52148"
       y="164.541"
       id="tspan4172">v1</tspan></text>
  <path
     id="path4174"
     d="m 660,220 0,60"
     style="fill:none;fill-rule:evenodd;stroke:#000000;stroke-width:1px;marker-end:url(#Arrow1Lend)" />
</svg>
