<?xml version="1.0" encoding="UTF-8" standalone="no"?>
<svg
   xmlns:dc="http://purl.org/dc/elements/1.1/"
   xmlns:cc="http://creativecommons.org/ns#"
   xmlns:rdf="http://www.w3.org/1999/02/22-rdf-syntax-ns#"
   xmlns:svg="http://www.w3.org/2000/svg"
   xmlns="http://www.w3.org/2000/svg"
   version="1.1"
   id="svg2"
   viewBox="0 0 800.00001 450.00001"
   height="450"
   width="800"><defs
   id="defs4">
  <marker
     style="overflow:visible;"
     id="Arrow1Lend"
     refX="0.0"
     refY="0.0"
     orient="auto">
    <path
       transform="scale(0.8) rotate(180) translate(12.5,0)"
       style="fill-rule:evenodd;stroke:#000000;stroke-width:1.0pt;"
       d="M 0.0,0.0 L 5.0,-5.0 L -12.5,0.0 L 5.0,5.0 L 0.0,0.0 z "
       id="path4519" />
  </marker>
</defs>
<g
   id="layer1" />

    <circle
   r="59.999989"
   cy="150.00006"
   cx="139.99998"
   id="path4138"
   style="fill:#ffd5d5" />
<circle
   style="fill:#ffd5d5"
   id="circle4140"
   cx="400"
   cy="150"
   r="59.999989" />
<circle
   r="59.999989"
   cy="150"
   cx="660"
   id="circle4142"
   style="fill:#e6e6e6" />
<text
   id="text4144"
   y="64.218811"
   x="16.09375"
   style="font-size:40px"
   xml:space="preserve"><tspan
     id="tspan4148"
     y="64.218811"
     x="16.09375">インストール</tspan></text>
<text
   style="font-size:40px"
   x="359.6875"
   y="64.296936"
   id="text4152"><tspan
     x="359.6875"
     y="64.296936"
     id="tspan4154">待機</tspan></text>
<text
   id="text4156"
   y="65.390686"
   x="558.59375"
   style="font-size:40px"
   xml:space="preserve"><tspan
     id="tspan4158"
     y="65.390686"
     x="558.59375">アクティブ</tspan></text>
<path
   id="rect4160"
   d="m 580,290.00004 0,120 160,0 0,-120 -160,0 z m 10,30 140,0 0,80 -140,0 0,-80 z"
   style="fill:#e9afc6" />
    <path
   style="fill:none;fill-rule:evenodd;stroke:#000000;stroke-width:1px;marker-end:url(#Arrow1Lend)"
   d="m 210,150.00004 120,0"
   id="path4796" />
<text
   id="text4408"
   y="164.54102"
   x="114.52148"
   style="font-size:40px"><tspan
     id="tspan4410"
     y="164.54102"
     x="114.52148">v1</tspan></text>
<text
   xml:space="preserve"
   style="font-size:40px"
   x="374.52148"
   y="164.54102"
   id="text4412"><tspan
     x="374.52148"
     y="164.54102"
     id="tspan4414">v1</tspan></text>
</svg>
