<?xml version="1.0" encoding="UTF-8" standalone="no"?>
<svg
   xmlns="http://www.w3.org/2000/svg"
   width="300"
   height="300"
   viewBox="0 0 300.00001 300"
   version="1.1">
  <path
     id="path4135"
     d="m 19.974609,50 c -6.814101,0.01862 -11.6147667,6.697333 -9.460937,13.162109 l 29.65625,88.968751 C 40.059822,154.68859 40,157.3079 40,160 c 0,80 0,100 110,100 110,0 110,-20 110,-100 0,-2.6921 -0.0598,-5.31141 -0.16992,-7.86914 L 289.48633,63.162109 C 291.65415,56.655911 286.77953,49.9477 279.92188,50 c -0.63232,0.0048 -1.26274,0.06953 -1.88282,0.193359 L 198.96289,66.007812 C 184.21631,61.682261 167.5923,60 150,60 c -17.5923,0 -34.21631,1.682261 -48.96289,6.007812 L 21.960938,50.193359 C 21.30693,50.062839 20.641509,49.998064 19.974609,50 Z"
     style="fill:#e6e6e6;" />
  <circle
     r="20"
     transform="scale(1,-1)"
     cy="-140"
     cx="100"
     id="path4138"
     style="fill:#cccccc;" />
  <path
     id="path4150"
     d="m 180,190 c 0,10 -13.43146,15 -30,15 -16.56854,0 -30,-5 -30,-15 0,-5.52285 13.43146,-10 30,-10 16.56854,0 30,4.47715 30,10 z"
     style="fill:#cccccc;" />
  <circle
     r="20"
     style="fill:#cccccc;"
     id="circle4140"
     cx="200"
     cy="140" />
</svg>
